<?xml version="1.0" encoding="UTF-8"?>
<!DOCTYPE svg PUBLIC "-//W3C//DTD SVG 1.1//EN" "http://www.w3.org/Graphics/SVG/1.1/DTD/svg11.dtd">
<svg xmlns="http://www.w3.org/2000/svg" version="1.1" width="512px" height="512px" style="shape-rendering:geometricPrecision; text-rendering:geometricPrecision; image-rendering:optimizeQuality; fill-rule:evenodd; clip-rule:evenodd" xmlns:xlink="http://www.w3.org/1999/xlink">
<g><path style="opacity:0.999" fill="#fefefe" d="M 40.5,-0.5 C 183.833,-0.5 327.167,-0.5 470.5,-0.5C 491.833,5.5 505.5,19.1667 511.5,40.5C 511.5,183.833 511.5,327.167 511.5,470.5C 505.5,491.833 491.833,505.5 470.5,511.5C 327.167,511.5 183.833,511.5 40.5,511.5C 19.1667,505.5 5.5,491.833 -0.5,470.5C -0.5,327.167 -0.5,183.833 -0.5,40.5C 5.5,19.1667 19.1667,5.5 40.5,-0.5 Z"/></g>
<g><path style="opacity:1" fill="#404040" d="M 150.5,102.5 C 150.5,204.5 150.5,306.5 150.5,408.5C 168.5,408.5 186.5,408.5 204.5,408.5C 186.341,409.497 168.008,409.83 149.5,409.5C 149.167,306.999 149.501,204.665 150.5,102.5 Z"/></g>
<g><path style="opacity:1" fill="#222222" d="M 150.5,102.5 C 186.835,102.333 223.168,102.5 259.5,103C 339.283,107.443 372.117,148.943 358,227.5C 348.097,257.736 327.931,277.569 297.5,287C 285.128,290.926 272.461,293.26 259.5,294C 241.17,294.5 222.836,294.667 204.5,294.5C 204.5,332.5 204.5,370.5 204.5,408.5C 186.5,408.5 168.5,408.5 150.5,408.5C 150.5,306.5 150.5,204.5 150.5,102.5 Z"/></g>
<g><path style="opacity:1" fill="#fdfdfd" d="M 204.5,149.5 C 223.86,149.157 243.194,149.657 262.5,151C 274.49,152.44 285.49,156.44 295.5,163C 303.447,171.776 307.114,182.11 306.5,194C 308.305,218.774 297.638,235.107 274.5,243C 269.476,243.919 264.476,244.919 259.5,246C 241.17,246.5 222.836,246.667 204.5,246.5C 204.5,214.167 204.5,181.833 204.5,149.5 Z"/></g>
</svg>
