<svg xmlns="http://www.w3.org/2000/svg" version="1.1" xmlns:xlink="http://www.w3.org/1999/xlink" xmlns:svgjs="http://svgjs.dev/svgjs" width="100%" height="100%" viewBox="0 0 1000 600"><rect width="1000" height="600" x="0" y="0" fill="#222222"/><g><rect width="333.3333333333333" height="333.3333333333333" rx="13.333333333333334" ry="13.333333333333334" y="247.6248178336835" fill="#ffffff" transform="matrix(0.5545632205643315,0,0,0.5545632205643315,0,70.24916750349905)" x="225.40255737304688"/><path d="M360.6273449334925 489.2914869601811L341.6351787532273 489.2914869601811L341.6351787532273 339.29148550634767L386.92419041385966 339.29148550634767Q403.6296743784407 339.29148550634767 416.07938866383193 343.5154957103197Q428.52910294922316 347.7395059142917 435.51618749714675 357.36262690529566Q442.5032720450704 366.95398842108176 442.5032720450704 383.4053965839201L442.5032720450704 383.4053965839201Q442.5032720450704 399.189855767184 435.51618749714675 409.38464731210894Q428.52910294922316 419.54767938181607 415.9523507629606 424.6927143671053Q403.37559857669805 429.8377493523945 386.92419041385966 429.8377493523945L386.92419041385966 429.8377493523945L360.6273449334925 429.8377493523945L360.6273449334925 489.2914869601811ZM360.6273449334925 354.59955256134407L360.6273449334925 414.2756064956555L384.6375081981755 414.2756064956555Q404.29662335801527 414.2756064956555 413.79270644814784 406.74861086902865Q423.2887895382804 399.189855767184 423.2887895382804 383.4053965839201L423.2887895382804 383.4053965839201Q423.2887895382804 367.1763047476066 413.6656685472765 360.8879286544753Q404.0743070314904 354.59955256134407 384.6375081981755 354.59955256134407L384.6375081981755 354.59955256134407L360.6273449334925 354.59955256134407Z " fill="#222222" transform="matrix(0.5545632205643315,0,0,0.5545632205643315,0,70.24916750349905)"/><path d="M655.3227726381599 453.5423712789234L642.0692265986306 453.5423712789234L642.0692265986306 348.8659533112033L673.6738363852004 348.8659533112033Q685.3316377510739 348.8659533112033 694.0195809743104 351.8136483333729Q702.7075241975471 354.76134335554246 707.5834107003839 361.47676885717686Q712.4592972032208 368.17003123834377 712.4592972032208 379.6505276404778L712.4592972032208 379.6505276404778Q712.4592972032208 390.66559851279555 707.5834107003839 397.77996018284387Q702.7075241975471 404.87215873242474 693.9309284924407 408.46258424815005Q685.1543327873344 412.05300976387537 673.6738363852004 412.05300976387537L673.6738363852004 412.05300976387537L655.3227726381599 412.05300976387537L655.3227726381599 453.5423712789234ZM655.3227726381599 359.5485773765095L655.3227726381599 401.19308073482966L672.0780917115446 401.19308073482966Q685.7970632808901 401.19308073482966 692.4238363006548 395.94042118404633Q699.0506093204194 390.66559851279555 699.0506093204194 379.6505276404778L699.0506093204194 379.6505276404778Q699.0506093204194 368.32517308161584 692.335183818785 363.93687522906265Q685.6419214376181 359.5485773765095 672.0780917115446 359.5485773765095L672.0780917115446 359.5485773765095L655.3227726381599 359.5485773765095ZM760.7970629427077 455.44839963912324L760.7970629427077 455.44839963912324Q753.6162119112572 455.44839963912324 747.565680023646 452.8331514239653Q741.4929850155673 450.1957400883399 737.9912119817118 445.2533642241008Q734.4672758273888 440.28882523939416 734.4672758273888 433.4404210149551L734.4672758273888 433.4404210149551Q734.4672758273888 420.34201681869797 747.565680023646 413.5601019556613Q760.6419210994358 406.7781870926246 790.6507862123498 404.384570082141L790.6507862123498 404.384570082141Q790.4734812486101 399.13191053135773 788.4788004065406 394.6549601969348Q786.4841195644709 390.2001729829793 782.0293323505155 387.5627616473539Q777.5523820160926 384.92535031172855 770.0612472980978 384.92535031172855L770.0612472980978 384.92535031172855Q765.1188714338585 384.92535031172855 760.2429849310217 386.2773006602424Q755.3670984281849 387.6292510087563 750.9788005756318 389.80123681456536Q746.5905027230787 391.9510594999071 742.933587845951 394.18953466711855L742.933587845951 394.18953466711855L737.8139070179723 385.2356339982727Q741.6481268588394 382.6868751445171 747.1667438552321 380.04946380889174Q752.6631977311572 377.43421559373377 759.04617642578 375.7498184382083Q765.4291551204027 374.06542128268285 772.2997224653092 374.06542128268285L772.2997224653092 374.06542128268285Q782.9823465306154 374.06542128268285 789.9194032369242 378.0547829668221Q796.856459943233 382.0441446509613 800.2917436156862 389.1585063210096Q803.7270272881394 396.2507048705905 803.7270272881394 405.98031475579677L803.7270272881394 405.98031475579677L803.7270272881394 453.5423712789234L793.0444032228332 453.5423712789234L791.9140840789938 443.01488905688933L791.4486585491776 443.01488905688933Q785.0656798545548 448.11240676440053 777.0869564862763 451.7914847619956Q769.1082331179979 455.44839963912324 760.7970629427077 455.44839963912324ZM764.3209990970307 444.92091741708913L764.3209990970307 444.92091741708913Q771.0142614781977 444.92091741708913 777.5523820160926 441.88456991304986Q784.0905025539874 438.87038552947797 790.6507862123498 433.4404210149551L790.6507862123498 433.4404210149551L790.6507862123498 413.00602394397526Q774.050608982237 414.4466267743589 764.5426303017051 416.99538562811455Q755.0568147416408 419.5441444818701 751.1561055393713 423.46701680460706Q747.2332332166344 427.3677260068765 747.2332332166344 432.4874068348552L747.2332332166344 432.4874068348552Q747.2332332166344 436.7870522055386 749.6268502271179 439.5796053844361Q752.0204672376015 442.3721585633335 755.9433395603384 443.6576195504451Q759.8440487626078 444.92091741708913 764.3209990970307 444.92091741708913ZM864.5204667303279 489.2914845929044L864.5204667303279 489.2914845929044Q853.1951121714659 489.2914845929044 845.2163888031874 486.7427257391488Q837.237665434909 484.17180376492576 833.0045094256279 479.38456974395865Q828.7713534163469 474.59733572299155 828.7713534163469 467.74893149855257L828.7713534163469 467.74893149855257Q828.7713534163469 463.11683932085754 832.051495245528 458.5733996250323Q835.3316370747092 454.0299599292071 841.5373108055924 450.5060237748841L841.5373108055924 450.5060237748841L841.5373108055924 449.86329328132837Q838.5231264220205 448.11240676440053 836.0408569296673 445.0760592603612Q833.5585874373139 442.0618748767894 833.5585874373139 437.09733589208275L833.5585874373139 437.09733589208275Q833.5585874373139 433.4404210149551 835.9522044477975 429.5175486922182Q838.345821458281 425.61683948994875 842.822771792704 422.5804919859094L842.822771792704 422.5804919859094L842.822771792704 421.9377614923537Q838.8334101085647 418.9235771087818 836.0408569296673 413.80389628080314Q833.2483037507698 408.7063785732919 833.2483037507698 401.8358112283854L833.2483037507698 401.8358112283854Q833.2483037507698 393.3916623302907 837.4814597600508 387.16382547894Q841.7146157693319 380.9359886275893 848.6516724756407 377.5007049551361Q855.5887291819495 374.06542128268285 863.7225943935 374.06542128268285L863.7225943935 374.06542128268285Q870.2607149313949 374.06542128268285 875.2252539161015 375.99361276335014L875.2252539161015 375.99361276335014L907.2952892324874 375.99361276335014L907.2952892324874 386.67623682865633L887.1933389685192 386.67623682865633Q889.8972396655469 389.40230064615145 891.8032680257468 393.5468041735628Q893.7314595064141 397.6913077009741 893.7314595064141 402.3233998786691L893.7314595064141 402.3233998786691Q893.7314595064141 410.61240693349174 889.7420978222748 416.5964494597006Q885.7527361381356 422.5804919859094 878.970821275099 425.7719813332208Q872.1889064120622 428.9634706805322 863.7225943935 428.9634706805322L863.7225943935 428.9634706805322Q860.6862468894607 428.9634706805322 857.2731263374749 428.25425082557416Q853.8378426650216 427.5228678501486 850.6463533177103 426.1044281402324L850.6463533177103 426.1044281402324Q847.7651476569431 427.8553146571602 846.1694029832875 430.09378982437164Q844.5736583096317 432.3101018711157 844.5736583096317 435.0361656886108L844.5736583096317 435.0361656886108Q844.5736583096317 439.4909529025663 848.8068143189128 441.7294280697778Q853.0399703281938 443.96790323698923 860.6862468894607 443.96790323698923L860.6862468894607 443.96790323698923L878.0842964564013 443.96790323698923Q893.0887290128583 443.96790323698923 900.3582325261787 448.11240676440053Q907.6055729190316 452.25691029181183 907.6055729190316 462.16382514075764L907.6055729190316 462.16382514075764Q907.6055729190316 469.34467617220827 902.3529133682483 475.57251302355894Q897.0780906969975 481.7781867544422 887.4149701731936 485.545917233907Q877.7740127698571 489.2914845929044 864.5204667303279 489.2914845929044ZM863.7225943935 420.1868749754259L863.7225943935 420.1868749754259Q868.6649702577391 420.1868749754259 872.7429844237482 417.94839980821445Q876.8209985897572 415.73208776147044 879.2146156002408 411.56542111359164Q881.6082326107243 407.42091758618034 881.6082326107243 401.8358112283854L881.6082326107243 401.8358112283854Q881.6082326107243 396.40584671386256 879.2146156002408 392.349995668321Q876.8209985897572 388.27198150231203 872.7429844237482 385.96701697369826Q868.6649702577391 383.639889324617 863.7225943935 383.639889324617L863.7225943935 383.639889324617Q858.935360372533 383.639889324617 854.8795093269914 385.96701697369826Q850.8014951609824 388.27198150231203 848.3192256686291 392.349995668321Q845.8591192967432 396.40584671386256 845.8591192967432 401.8358112283854L845.8591192967432 401.8358112283854Q845.8591192967432 407.42091758618034 848.3192256686291 411.56542111359164Q850.8014951609824 415.73208776147044 854.8795093269914 417.94839980821445Q858.935360372533 420.1868749754259 863.7225943935 420.1868749754259ZM865.4734809104278 479.7170165509703L865.4734809104278 479.7170165509703Q874.5825234225457 479.7170165509703 881.1206439604406 477.4785413837588Q887.6587644983355 475.24006621654735 891.1827006526584 471.7382931826918Q894.6844736865139 468.2143570283688 894.6844736865139 464.22499534422957L894.6844736865139 464.22499534422957Q894.6844736865139 458.63988898643464 890.2961758339608 456.7338606262348Q885.9078779814076 454.82783226603493 876.9761404330293 454.82783226603493L876.9761404330293 454.82783226603493L861.8165660333001 454.82783226603493Q858.4699348427167 454.82783226603493 855.5000767000797 454.49538545902334Q852.5523816779101 454.1851017724792 850.0036228241546 453.5423712789234L850.0036228241546 453.5423712789234Q844.5736583096317 456.5787187829627 842.3351831424203 459.83669749167643Q840.1188710956762 463.11683932085754 840.1188710956762 466.463470511441L840.1188710956762 466.463470511441Q840.1188710956762 472.53616551951967 846.5683391517013 476.126591035245Q853.0399703281938 479.7170165509703 865.4734809104278 479.7170165509703ZM977.8183385598821 455.44839963912324L977.8183385598821 455.44839963912324Q965.5399698209202 455.44839963912324 959.0018492830254 448.35620108954237Q952.4415656246631 441.2640025399615 952.4415656246631 427.5228678501486L952.4415656246631 427.5228678501486L952.4415656246631 350.61683982813116L925.9566366660721 350.61683982813116L925.9566366660721 339.934215762825L965.5399698209202 339.934215762825L965.5399698209202 428.498045150716Q965.5399698209202 436.9421940488107 969.6844733483316 440.7764138896778Q973.8289768757429 444.610633730545 980.6995442206493 444.610633730545L980.6995442206493 444.610633730545Q984.0461754112329 444.610633730545 987.5479484450883 443.7241089118474Q991.0718845994114 442.85974721361725 995.3715299700947 440.9315557329499L995.3715299700947 440.9315557329499L998.7181611606783 450.8384705818957Q993.4655016098949 452.74449894209556 988.8334094321999 454.0964492906094Q984.2013172545049 455.44839963912324 977.8183385598821 455.44839963912324ZM1072.2997211125798 453.5423712789234L1059.2013169163224 453.5423712789234L1059.2013169163224 386.67623682865633L1023.1419199157973 386.67623682865633L1023.1419199157973 375.99361276335014L1072.2997211125798 375.99361276335014L1072.2997211125798 453.5423712789234ZM1064.3209977443012 359.7037192197816L1064.3209977443012 359.7037192197816Q1059.8440474098784 359.7037192197816 1056.807699905839 356.91116604088415Q1053.7713524017995 354.11861286198666 1053.7713524017995 349.50868380475913L1053.7713524017995 349.50868380475913Q1053.7713524017995 344.8765916270641 1056.807699905839 342.08403844816667Q1059.8440474098784 339.29148526926923 1064.3209977443012 339.29148526926923L1064.3209977443012 339.29148526926923Q1068.7757849582567 339.29148526926923 1071.8121324622962 342.08403844816667Q1074.8484799663352 344.8765916270641 1074.8484799663352 349.50868380475913L1074.8484799663352 349.50868380475913Q1074.8484799663352 354.11861286198666 1071.8121324622962 356.91116604088415Q1068.7757849582567 359.7037192197816 1064.3209977443012 359.7037192197816ZM1143.7757846200743 455.44839963912324L1143.7757846200743 455.44839963912324Q1136.5949335886237 455.44839963912324 1130.5444017010127 452.8331514239653Q1124.4717066929338 450.1957400883399 1120.9699336590784 445.2533642241008Q1117.4459975047553 440.28882523939416 1117.4459975047553 433.4404210149551L1117.4459975047553 433.4404210149551Q1117.4459975047553 420.34201681869797 1130.5444017010127 413.5601019556613Q1143.6206427768022 406.7781870926246 1173.6295078897163 404.384570082141L1173.6295078897163 404.384570082141Q1173.4522029259767 399.13191053135773 1171.457522083907 394.6549601969348Q1169.4628412418374 390.2001729829793 1165.008054027882 387.5627616473539Q1160.531103693459 384.92535031172855 1153.0399689754643 384.92535031172855L1153.0399689754643 384.92535031172855Q1148.0975931112253 384.92535031172855 1143.221706608388 386.2773006602424Q1138.3458201055514 387.6292510087563 1133.9575222529984 389.80123681456536Q1129.5692244004451 391.9510594999071 1125.9123095233176 394.18953466711855L1125.9123095233176 394.18953466711855L1120.7926286953389 385.2356339982727Q1124.6268485362061 382.6868751445171 1130.1454655325988 380.04946380889174Q1135.6419194085238 377.43421559373377 1142.0248981031464 375.7498184382083Q1148.4078767977694 374.06542128268285 1155.2784441426757 374.06542128268285L1155.2784441426757 374.06542128268285Q1165.961068207982 374.06542128268285 1172.8981249142907 378.0547829668221Q1179.8351816205995 382.0441446509613 1183.270465293053 389.1585063210096Q1186.7057489655058 396.2507048705905 1186.7057489655058 405.98031475579677L1186.7057489655058 405.98031475579677L1186.7057489655058 453.5423712789234L1176.0231249002 453.5423712789234L1174.8928057563603 443.01488905688933L1174.427380226544 443.01488905688933Q1168.0444015319213 448.11240676440053 1160.0656781636428 451.7914847619956Q1152.0869547953644 455.44839963912324 1143.7757846200743 455.44839963912324ZM1147.2997207743974 444.92091741708913L1147.2997207743974 444.92091741708913Q1153.9929831555642 444.92091741708913 1160.531103693459 441.88456991304986Q1167.069224231354 438.87038552947797 1173.6295078897163 433.4404210149551L1173.6295078897163 433.4404210149551L1173.6295078897163 413.00602394397526Q1157.0293306596036 414.4466267743589 1147.5213519790718 416.99538562811455Q1138.0355364190073 419.5441444818701 1134.134827216738 423.46701680460706Q1130.2119548940009 427.3677260068765 1130.2119548940009 432.4874068348552L1130.2119548940009 432.4874068348552Q1130.2119548940009 436.7870522055386 1132.6055719044843 439.5796053844361Q1134.9991889149678 442.3721585633335 1138.9220612377048 443.6576195504451Q1142.8227704399742 444.92091741708913 1147.2997207743974 444.92091741708913ZM1248.1419189012502 455.44839963912324L1248.1419189012502 455.44839963912324Q1242.8670962299993 455.44839963912324 1239.0550395095997 451.70283228012585Q1235.2208196687325 447.95726492112846 1235.2208196687325 442.0618748767894L1235.2208196687325 442.0618748767894Q1235.2208196687325 435.9891798687108 1239.0550395095997 432.2436125097134Q1242.8670962299993 428.498045150716 1248.1419189012502 428.498045150716L1248.1419189012502 428.498045150716Q1253.5718834157728 428.498045150716 1257.3174507747704 432.2436125097134Q1261.0630181337679 435.9891798687108 1261.0630181337679 442.0618748767894L1261.0630181337679 442.0618748767894Q1261.0630181337679 447.95726492112846 1257.3174507747704 451.70283228012585Q1253.5718834157728 455.44839963912324 1248.1419189012502 455.44839963912324ZM1343.8865993205918 455.44839963912324L1343.8865993205918 455.44839963912324Q1333.669400785102 455.44839963912324 1324.9814575618652 450.6611656181562Q1316.2713512181613 445.8739315971891 1310.9300391855081 436.7870522055386Q1305.588727152855 427.7001728138882 1305.588727152855 414.93421542464256L1305.588727152855 414.93421542464256Q1305.588727152855 401.8358112283854 1310.9300391855081 392.7489318367349Q1316.2713512181613 383.639889324617 1324.9814575618652 378.85265530364995Q1333.669400785102 374.06542128268285 1343.8865993205918 374.06542128268285L1343.8865993205918 374.06542128268285Q1354.1037978560817 374.06542128268285 1362.791741079318 378.85265530364995Q1371.5018474230224 383.639889324617 1376.8431594556755 392.7489318367349Q1382.1844714883282 401.8358112283854 1382.1844714883282 414.93421542464256L1382.1844714883282 414.93421542464256Q1382.1844714883282 427.7001728138882 1376.8431594556755 436.7870522055386Q1371.5018474230224 445.8739315971891 1362.791741079318 450.6611656181562Q1354.1037978560817 455.44839963912324 1343.8865993205918 455.44839963912324ZM1343.8865993205918 444.610633730545L1343.8865993205918 444.610633730545Q1351.3777340385864 444.610633730545 1356.9628403963816 440.8650663715476Q1362.5479467541763 437.09733589208275 1365.5842942582158 430.40407351091585Q1368.6206417622552 423.7108111297489 1368.6206417622552 414.93421542464256L1368.6206417622552 414.93421542464256Q1368.6206417622552 405.98031475579677 1365.5842942582158 399.19839989276005Q1362.5479467541763 392.41648502972333 1356.9628403963816 388.67091767072594Q1351.3777340385864 384.92535031172855 1343.8865993205918 384.92535031172855L1343.8865993205918 384.92535031172855Q1336.3954646025968 384.92535031172855 1330.8768476062041 388.67091767072594Q1325.3803937302791 392.41648502972333 1322.2553937443704 399.19839989276005Q1319.1525568789284 405.98031475579677 1319.1525568789284 414.93421542464256L1319.1525568789284 414.93421542464256Q1319.1525568789284 423.7108111297489 1322.2553937443704 430.40407351091585Q1325.3803937302791 437.09733589208275 1330.8768476062041 440.8650663715476Q1336.3954646025968 444.610633730545 1343.8865993205918 444.610633730545ZM1428.150783337799 453.5423712789234L1415.0523791415421 453.5423712789234L1415.0523791415421 375.99361276335014L1425.912308170588 375.99361276335014L1427.02046419396 394.3446765103906L1427.5080528442436 394.3446765103906Q1433.5585847318548 384.92535031172855 1442.5124854007008 379.4953857972057Q1451.4442229490792 374.06542128268285 1462.126847014385 374.06542128268285L1462.126847014385 374.06542128268285Q1466.448655505536 374.06542128268285 1470.1942228645335 374.79680425810835Q1473.939790223531 375.5060241130665 1477.4415632573864 377.25691062999425L1477.4415632573864 377.25691062999425L1474.4273788738146 388.6044283093236Q1470.438017189675 387.16382547894 1467.556811528908 386.52109498538425Q1464.6756058681408 385.87836449182845 1460.0656768109134 385.87836449182845L1460.0656768109134 385.87836449182845Q1451.2890811058069 385.87836449182845 1443.221705255659 390.9093928379374Q1435.1543294055105 395.94042118404633 1428.150783337799 408.0636480797361L1428.150783337799 408.0636480797361L1428.150783337799 453.5423712789234ZM1534.7332296657191 489.2914845929044L1534.7332296657191 489.2914845929044Q1523.4078751068573 489.2914845929044 1515.4291517385786 486.7427257391488Q1507.4504283703004 484.17180376492576 1503.2172723610192 479.38456974395865Q1498.984116351738 474.59733572299155 1498.984116351738 467.74893149855257L1498.984116351738 467.74893149855257Q1498.984116351738 463.11683932085754 1502.2642581809196 458.5733996250323Q1505.5444000101006 454.0299599292071 1511.7500737409837 450.5060237748841L1511.7500737409837 450.5060237748841L1511.7500737409837 449.86329328132837Q1508.735889357412 448.11240676440053 1506.2536198650587 445.0760592603612Q1503.7713503727055 442.0618748767894 1503.7713503727055 437.09733589208275L1503.7713503727055 437.09733589208275Q1503.7713503727055 433.4404210149551 1506.164967383189 429.5175486922182Q1508.5585843936724 425.61683948994875 1513.0355347280952 422.5804919859094L1513.0355347280952 422.5804919859094L1513.0355347280952 421.9377614923537Q1509.046173043956 418.9235771087818 1506.2536198650587 413.80389628080314Q1503.4610666861613 408.7063785732919 1503.4610666861613 401.8358112283854L1503.4610666861613 401.8358112283854Q1503.4610666861613 393.3916623302907 1507.6942226954425 387.16382547894Q1511.9273787047232 380.9359886275893 1518.864435411032 377.5007049551361Q1525.8014921173408 374.06542128268285 1533.9353573288913 374.06542128268285L1533.9353573288913 374.06542128268285Q1540.4734778667862 374.06542128268285 1545.438016851493 375.99361276335014L1545.438016851493 375.99361276335014L1577.5080521678788 375.99361276335014L1577.5080521678788 386.67623682865633L1557.4061019039104 386.67623682865633Q1560.1100026009385 389.40230064615145 1562.0160309611383 393.5468041735628Q1563.9442224418053 397.6913077009741 1563.9442224418053 402.3233998786691L1563.9442224418053 402.3233998786691Q1563.9442224418053 410.61240693349174 1559.9548607576662 416.5964494597006Q1555.965499073527 422.5804919859094 1549.1835842104902 425.7719813332208Q1542.4016693474537 428.9634706805322 1533.9353573288913 428.9634706805322L1533.9353573288913 428.9634706805322Q1530.8990098248519 428.9634706805322 1527.4858892728662 428.25425082557416Q1524.0506056004133 427.5228678501486 1520.859116253102 426.1044281402324L1520.859116253102 426.1044281402324Q1517.9779105923344 427.8553146571602 1516.3821659186788 430.09378982437164Q1514.7864212450231 432.3101018711157 1514.7864212450231 435.0361656886108L1514.7864212450231 435.0361656886108Q1514.7864212450231 439.4909529025663 1519.0195772543043 441.7294280697778Q1523.2527332635855 443.96790323698923 1530.8990098248519 443.96790323698923L1530.8990098248519 443.96790323698923L1548.2970593917926 443.96790323698923Q1563.3014919482498 443.96790323698923 1570.57099546157 448.11240676440053Q1577.818335854423 452.25691029181183 1577.818335854423 462.16382514075764L1577.818335854423 462.16382514075764Q1577.818335854423 469.34467617220827 1572.5656763036395 475.57251302355894Q1567.290853632389 481.7781867544422 1557.6277331085848 485.545917233907Q1547.9867757052484 489.2914845929044 1534.7332296657191 489.2914845929044ZM1533.9353573288913 420.1868749754259L1533.9353573288913 420.1868749754259Q1538.8777331931306 420.1868749754259 1542.9557473591394 417.94839980821445Q1547.0337615251487 415.73208776147044 1549.4273785356322 411.56542111359164Q1551.8209955461157 407.42091758618034 1551.8209955461157 401.8358112283854L1551.8209955461157 401.8358112283854Q1551.8209955461157 396.40584671386256 1549.4273785356322 392.349995668321Q1547.0337615251487 388.27198150231203 1542.9557473591394 385.96701697369826Q1538.8777331931306 383.639889324617 1533.9353573288913 383.639889324617L1533.9353573288913 383.639889324617Q1529.1481233079244 383.639889324617 1525.0922722623827 385.96701697369826Q1521.0142580963739 388.27198150231203 1518.5319886040206 392.349995668321Q1516.0718822321346 396.40584671386256 1516.0718822321346 401.8358112283854L1516.0718822321346 401.8358112283854Q1516.0718822321346 407.42091758618034 1518.5319886040206 411.56542111359164Q1521.0142580963739 415.73208776147044 1525.0922722623827 417.94839980821445Q1529.1481233079244 420.1868749754259 1533.9353573288913 420.1868749754259ZM1535.6862438458193 479.7170165509703L1535.6862438458193 479.7170165509703Q1544.7952863579371 479.7170165509703 1551.333406895832 477.4785413837588Q1557.871527433727 475.24006621654735 1561.3954635880496 471.7382931826918Q1564.8972366219054 468.2143570283688 1564.8972366219054 464.22499534422957L1564.8972366219054 464.22499534422957Q1564.8972366219054 458.63988898643464 1560.508938769352 456.7338606262348Q1556.120640916799 454.82783226603493 1547.1889033684206 454.82783226603493L1547.1889033684206 454.82783226603493L1532.0293289686915 454.82783226603493Q1528.682697778108 454.82783226603493 1525.712839635471 454.49538545902334Q1522.7651446133013 454.1851017724792 1520.216385759546 453.5423712789234L1520.216385759546 453.5423712789234Q1514.7864212450231 456.5787187829627 1512.5479460778115 459.83669749167643Q1510.3316340310676 463.11683932085754 1510.3316340310676 466.463470511441L1510.3316340310676 466.463470511441Q1510.3316340310676 472.53616551951967 1516.7811020870927 476.126591035245Q1523.2527332635855 479.7170165509703 1535.6862438458193 479.7170165509703Z " fill="#ffffff" transform="matrix(0.5545632205643315,0,0,0.5545632205643315,0,70.24916750349905)"/></g></svg>